solid Square
  facet normal 0.0000 0.0000 1.0000
    outer loop
      vertex 0.0000 0.0000 0.0000
      vertex 12.0000 0.0000 0.0000
      vertex 0.0000 12.0000 0.0000
    endloop
  endfacet
  facet normal 0.0000 0.0000 1.0000
    outer loop
      vertex 12.0000 0.0000 0.0000
      vertex 12.0000 12.0000 0.0000
      vertex 0.0000 12.0000 0.0000
    endloop
  endfacet
  facet normal 0.0000 0.0000 1.0000
    outer loop
      vertex 12.0000 0.0000 0.0000
      vertex 24.0000 0.0000 0.0000
      vertex 12.0000 12.0000 0.0000
    endloop
  endfacet
  facet normal 0.0000 0.0000 1.0000
    outer loop
      vertex 24.0000 0.0000 0.0000
      vertex 24.0000 12.0000 0.0000
      vertex 12.0000 12.0000 0.0000
    endloop
  endfacet
  facet normal 0.0000 0.0000 1.0000
    outer loop
      vertex 24.0000 0.0000 0.0000
      vertex 36.0000 0.0000 0.0000
      vertex 24.0000 12.0000 0.0000
    endloop
  endfacet
  facet normal 0.0000 0.0000 1.0000
    outer loop
      vertex 36.0000 0.0000 0.0000
      vertex 36.0000 12.0000 0.0000
      vertex 24.0000 12.0000 0.0000
    endloop
  endfacet
  facet normal 0.0000 0.0000 1.0000
    outer loop
      vertex 0.0000 12.0000 0.0000
      vertex 12.0000 12.0000 0.0000
      vertex 0.0000 24.0000 0.0000
    endloop
  endfacet
  facet normal 0.0000 0.0000 1.0000
    outer loop
      vertex 12.0000 12.0000 0.0000
      vertex 12.0000 24.0000 0.0000
      vertex 0.0000 24.0000 0.0000
    endloop
  endfacet
  facet normal 0.0000 0.0000 1.0000
    outer loop
      vertex 12.0000 12.0000 0.0000
      vertex 24.0000 12.0000 0.0000
      vertex 12.0000 24.0000 0.0000
    endloop
  endfacet
  facet normal 0.0000 0.0000 1.0000
    outer loop
      vertex 24.0000 12.0000 0.0000
      vertex 24.0000 24.0000 0.0000
      vertex 12.0000 24.0000 0.0000
    endloop
  endfacet
  facet normal 0.0000 0.0000 1.0000
    outer loop
      vertex 24.0000 12.0000 0.0000
      vertex 36.0000 12.0000 0.0000
      vertex 24.0000 24.0000 0.0000
    endloop
  endfacet
  facet normal 0.0000 0.0000 1.0000
    outer loop
      vertex 36.0000 12.0000 0.0000
      vertex 36.0000 24.0000 0.0000
      vertex 24.0000 24.0000 0.0000
    endloop
  endfacet
  facet normal 0.0000 0.0000 1.0000
    outer loop
      vertex 0.0000 24.0000 0.0000
      vertex 12.0000 24.0000 0.0000
      vertex 0.0000 36.0000 0.0000
    endloop
  endfacet
  facet normal 0.0000 0.0000 1.0000
    outer loop
      vertex 12.0000 24.0000 0.0000
      vertex 12.0000 36.0000 0.0000
      vertex 0.0000 36.0000 0.0000
    endloop
  endfacet
  facet normal 0.0000 0.0000 1.0000
    outer loop
      vertex 12.0000 24.0000 0.0000
      vertex 24.0000 24.0000 0.0000
      vertex 12.0000 36.0000 0.0000
    endloop
  endfacet
  facet normal 0.0000 0.0000 1.0000
    outer loop
      vertex 24.0000 24.0000 0.0000
      vertex 24.0000 36.0000 0.0000
      vertex 12.0000 36.0000 0.0000
    endloop
  endfacet
  facet normal 0.0000 0.0000 1.0000
    outer loop
      vertex 24.0000 24.0000 0.0000
      vertex 36.0000 24.0000 0.0000
      vertex 24.0000 36.0000 0.0000
    endloop
  endfacet
  facet normal 0.0000 0.0000 1.0000
    outer loop
      vertex 36.0000 24.0000 0.0000
      vertex 36.0000 36.0000 0.0000
      vertex 24.0000 36.0000 0.0000
    endloop
  endfacet
endsolid cube
