solid Triangle
  facet normal 0 0 1
    outer loop
      vertex 0.0 20.0 0
      vertex 20.0 0.0 0
      vertex 20.0 20.0 0
    endloop
  endfacet
  facet normal 0 0 1
    outer loop
      vertex 0.0 0.0 0
      vertex 20.0 0.0 0
      vertex 0.0 20.0 0
    endloop
  endfacet
  facet normal 0 0 1
    outer loop
      vertex 0.0 20.0 0
      vertex 20.0 0.0 0
      vertex 20.0 20.0 0
    endloop
  endfacet
  facet normal 0 0 1
    outer loop
      vertex 0.0 0.0 0
      vertex 20.0 0.0 0
      vertex 0.0 20.0 0
    endloop
  endfacet  
  facet normal 0 0 1
    outer loop
      vertex 0.0 20.0 0
      vertex 20.0 0.0 0
      vertex 20.0 20.0 0
    endloop
  endfacet
  facet normal 0 0 1
    outer loop
      vertex 0.0 0.0 0
      vertex 20.0 0.0 0
      vertex 0.0 20.0 0
    endloop
  endfacet
  facet normal 0 0 1
    outer loop
      vertex 0.0 20.0 0
      vertex 20.0 0.0 0
      vertex 20.0 20.0 0
    endloop
  endfacet
  facet normal 0 0 1
    outer loop
      vertex 0.0 0.0 0
      vertex 20.0 0.0 0
      vertex 0.0 20.0 0
    endloop
  endfacet
  facet normal 0 0 1
    outer loop
      vertex 0.0 20.0 0
      vertex 20.0 0.0 0
      vertex 20.0 20.0 0
    endloop
  endfacet
  facet normal 0 0 1
    outer loop
      vertex 0.0 0.0 0
      vertex 20.0 0.0 0
      vertex 0.0 20.0 0
    endloop
  endfacet
  facet normal 0 0 1
    outer loop
      vertex 0.0 0.0 0
      vertex 20.0 0.0 0
      vertex 0.0 20.0 0
    endloop
  endfacet
endsolid Triangle

