solid OpenSCAD_Model
  facet normal -0 0 1
    outer loop
      vertex 0 60 60
      vertex 60 0 60
      vertex 60 60 60
    endloop
  endfacet
  facet normal 0 0 1
    outer loop
      vertex 60 0 60
      vertex 0 60 60
      vertex 0 0 60
    endloop
  endfacet
  facet normal 0 0 -1
    outer loop
      vertex 0 0 0
      vertex 60 60 0
      vertex 60 0 0
    endloop
  endfacet
  facet normal -0 0 -1
    outer loop
      vertex 60 60 0
      vertex 0 0 0
      vertex 0 60 0
    endloop
  endfacet
  facet normal 0 -1 0
    outer loop
      vertex 0 0 0
      vertex 60 0 60
      vertex 0 0 60
    endloop
  endfacet
  facet normal 0 -1 -0
    outer loop
      vertex 60 0 60
      vertex 0 0 0
      vertex 60 0 0
    endloop
  endfacet
  facet normal 1 -0 0
    outer loop
      vertex 60 0 60
      vertex 60 60 0
      vertex 60 60 60
    endloop
  endfacet
  facet normal 1 0 0
    outer loop
      vertex 60 60 0
      vertex 60 0 60
      vertex 60 0 0
    endloop
  endfacet
  facet normal 0 1 -0
    outer loop
      vertex 60 60 0
      vertex 0 60 60
      vertex 60 60 60
    endloop
  endfacet
  facet normal 0 1 0
    outer loop
      vertex 0 60 60
      vertex 60 60 0
      vertex 0 60 0
    endloop
  endfacet
  facet normal -1 0 0
    outer loop
      vertex 0 0 0
      vertex 0 60 60
      vertex 0 60 0
    endloop
  endfacet
  facet normal -1 -0 0
    outer loop
      vertex 0 60 60
      vertex 0 0 0
      vertex 0 0 60
    endloop
  endfacet
endsolid OpenSCAD_Model
